<svg xmlns="http://www.w3.org/2000/svg" xmlns:xlink="http://www.w3.org/1999/xlink" width="500" zoomAndPan="magnify" viewBox="0 0 375 374.999991" height="500" preserveAspectRatio="xMidYMid meet" version="1.0"><defs><g/><clipPath id="114802ef06"><path d="M 53.472656 84.671875 L 193.722656 84.671875 L 193.722656 290.171875 L 53.472656 290.171875 Z M 53.472656 84.671875 " clip-rule="nonzero"/></clipPath></defs><g clip-path="url(#114802ef06)"><path fill="white" d="M 143.007812 84.699219 L 169.410156 84.699219 C 172.425781 84.699219 174.871094 87.136719 174.886719 90.148438 C 174.886719 90.167969 174.886719 90.183594 174.886719 90.199219 L 176.136719 108.0625 C 176.164062 108.449219 176.433594 108.769531 176.808594 108.867188 C 182.5 110.355469 187.945312 112.441406 193.078125 115.066406 C 193.082031 115.066406 193.082031 115.066406 193.085938 115.070312 C 193.574219 115.324219 193.71875 115.960938 193.382812 116.398438 L 180.878906 132.820312 C 180.628906 133.148438 180.1875 133.265625 179.808594 133.101562 C 177.675781 132.167969 175.476562 131.363281 173.222656 130.6875 C 170.332031 129.824219 167.351562 129.175781 164.300781 128.757812 C 162.46875 128.507812 160.613281 128.339844 158.734375 128.261719 C 157.898438 128.226562 157.054688 128.207031 156.207031 128.207031 C 154.585938 128.207031 152.976562 128.273438 151.382812 128.402344 C 134.042969 129.800781 118.816406 138.664062 108.914062 151.78125 C 101.429688 161.695312 96.992188 174.039062 96.992188 187.421875 C 96.992188 220.125 123.503906 246.632812 156.207031 246.632812 C 164.601562 246.632812 172.578125 244.890625 179.8125 241.742188 C 180.191406 241.582031 180.628906 241.695312 180.878906 242.023438 L 182.054688 243.566406 L 193.378906 258.4375 C 193.714844 258.878906 193.570312 259.519531 193.078125 259.777344 C 193.015625 259.808594 192.957031 259.835938 192.898438 259.867188 C 192.816406 259.910156 192.738281 259.949219 192.65625 259.992188 C 190.082031 261.285156 187.429688 262.449219 184.707031 263.46875 C 182.132812 264.433594 179.5 265.269531 176.808594 265.972656 C 176.433594 266.070312 176.164062 266.394531 176.136719 266.78125 L 174.886719 284.644531 C 174.886719 284.660156 174.886719 284.675781 174.886719 284.695312 C 174.871094 287.703125 172.425781 290.144531 169.410156 290.144531 L 143.007812 290.144531 C 139.992188 290.144531 137.546875 287.703125 137.535156 284.695312 C 137.535156 284.675781 137.53125 284.660156 137.53125 284.644531 L 136.28125 266.78125 C 136.253906 266.394531 135.988281 266.070312 135.609375 265.972656 C 128.375 264.082031 121.53125 261.21875 115.230469 257.523438 C 114.894531 257.332031 114.476562 257.367188 114.183594 257.621094 L 100.664062 269.375 C 100.652344 269.386719 100.640625 269.394531 100.628906 269.410156 C 98.488281 271.53125 95.035156 271.523438 92.902344 269.390625 L 81.523438 258.015625 L 74.234375 250.722656 C 72.101562 248.589844 72.09375 245.136719 74.21875 242.996094 C 74.226562 242.984375 74.238281 242.976562 74.25 242.960938 L 86.003906 229.441406 C 86.257812 229.152344 86.292969 228.730469 86.097656 228.394531 C 82.40625 222.09375 79.542969 215.253906 77.652344 208.019531 C 77.554688 207.644531 77.230469 207.371094 76.84375 207.347656 L 58.976562 206.097656 C 58.960938 206.097656 58.945312 206.097656 58.929688 206.097656 C 55.917969 206.082031 53.480469 203.636719 53.480469 200.621094 L 53.480469 174.21875 C 53.480469 171.203125 55.917969 168.757812 58.929688 168.746094 C 58.945312 168.746094 58.960938 168.746094 58.976562 168.742188 L 76.84375 167.496094 C 77.230469 167.46875 77.554688 167.199219 77.652344 166.824219 C 79.542969 159.585938 82.40625 152.746094 86.097656 146.445312 C 86.292969 146.113281 86.257812 145.691406 86.003906 145.398438 L 84.023438 143.117188 L 74.25 131.878906 C 74.238281 131.867188 74.226562 131.855469 74.21875 131.84375 C 72.09375 129.707031 72.101562 126.25 74.234375 124.121094 L 81.523438 116.828125 L 92.902344 105.449219 C 95.035156 103.320312 98.488281 103.3125 100.628906 105.433594 C 100.640625 105.445312 100.652344 105.453125 100.664062 105.464844 L 114.183594 117.222656 C 114.476562 117.472656 114.894531 117.511719 115.230469 117.316406 C 120.671875 114.128906 126.519531 111.554688 132.679688 109.695312 C 133.648438 109.402344 134.625 109.125 135.609375 108.867188 C 135.988281 108.769531 136.253906 108.445312 136.28125 108.0625 L 136.46875 105.414062 L 136.621094 103.203125 L 137.085938 96.585938 L 137.53125 90.199219 C 137.53125 90.183594 137.535156 90.167969 137.535156 90.148438 C 137.546875 87.136719 139.992188 84.699219 143.007812 84.699219 " fill-opacity="1" fill-rule="nonzero"/></g><g fill="white" fill-opacity="1"><g transform="translate(116.964841, 218.814653)"><g><path d="M 50.933594 -60.445312 C 50.769531 -60.859375 50.605469 -61.355469 50.4375 -61.683594 C 49.117188 -65.984375 45.148438 -69.042969 40.597656 -69.042969 C 38.53125 -69.042969 36.546875 -68.464844 34.894531 -67.308594 C 34.398438 -67.058594 33.984375 -66.730469 33.652344 -66.480469 C 32.414062 -65.40625 31.171875 -63.421875 30.015625 -60.445312 L 6.945312 -3.140625 C 6.699219 -2.398438 6.613281 -1.652344 6.78125 -1.15625 C 6.863281 -0.660156 7.277344 0.0820312 8.597656 0.0820312 L 17.695312 0.0820312 C 18.769531 0.0820312 19.597656 -0.578125 20.011719 -1.652344 L 24.722656 -13.476562 L 42.832031 -13.476562 C 43.742188 -13.476562 44.570312 -13.890625 44.980469 -14.636719 C 45.476562 -15.296875 45.5625 -16.207031 45.3125 -17.035156 L 42.335938 -24.394531 C 41.921875 -25.386719 41.011719 -26.046875 39.9375 -26.046875 L 29.683594 -26.046875 L 40.269531 -52.835938 C 40.351562 -53.003906 40.433594 -53.085938 40.433594 -53.085938 L 40.765625 -53.085938 C 40.765625 -53.085938 40.765625 -53.085938 40.847656 -52.921875 L 61.355469 -1.738281 C 61.765625 -0.578125 62.59375 0.0820312 63.753906 0.0820312 L 72.601562 0.0820312 C 73.921875 0.0820312 74.253906 -0.746094 74.417969 -1.15625 C 74.585938 -1.652344 74.5 -2.398438 74.171875 -3.140625 Z M 50.933594 -60.445312 "/></g></g></g></svg>